<svg width="32" height="32" viewBox="0 0 32 32" fill="none" xmlns="http://www.w3.org/2000/svg">
  <circle cx="16" cy="16" r="16" fill="url(#gradient)"/>
  <path d="M8 12C8 8.68629 10.6863 6 14 6C17.3137 6 20 8.68629 20 12C20 15.3137 17.3137 18 14 18C10.6863 18 8 15.3137 8 12Z" fill="white"/>
  <path d="M10 12C10 9.79086 11.7909 8 14 8C16.2091 8 18 9.79086 18 12C18 14.2091 16.2091 16 14 16C11.7909 16 10 14.2091 10 12Z" fill="url(#gradient)"/>
  <path d="M16 4L17.5 8.5L22 8.5L18.5 11.5L19.5 16L16 13.5L12.5 16L13.5 11.5L10 8.5L14.5 8.5L16 4Z" fill="white"/>
  <defs>
    <linearGradient id="gradient" x1="0%" y1="0%" x2="100%" y2="100%">
      <stop offset="0%" style="stop-color:#3B82F6;stop-opacity:1" />
      <stop offset="50%" style="stop-color:#6366F1;stop-opacity:1" />
      <stop offset="100%" style="stop-color:#8B5CF6;stop-opacity:1" />
    </linearGradient>
  </defs>
</svg>
